
	<svg xmlns="http://www.w3.org/2000/svg" xmlns:xlink="http://www.w3.org/1999/xlink" version="1.1" width="128" height="128" viewBox="0 0 100 100">


		<defs>
			<g id="background">
<path fill="url(#background-gradient)" stroke="none" d=" M 85.35 85.35 Q 100 70.6 100 50 100 29.3 85.35 14.65 70.7 0 50 0 29.3 0 14.65 14.65 0 29.3 0 50 0 70.6 14.65 85.35 29.3 100 50 100 70.7 100 85.35 85.35 Z"/>
</g><g id="middle-1">
<path fill="#000000" fill-opacity="0.10196078431372549" stroke="none" d=" M 0 50 Q 0 70.7 14.75 85.4 29.3 100 50 100 61 100 71.15 95.25 L 0.1 47.95 0 50 M 98 63.8 L 99.2 59.1 22.6 8.15 18.6 11.05 98 63.8 Z"/>
</g><mask id="mask">
<path fill="#FFFFFF" stroke="none" d=" M 85.35 85.35 Q 100 70.6 100 50 100 29.3 85.35 14.65 70.7 0 50 0 29.3 0 14.65 14.65 0 29.3 0 50 0 70.6 14.65 85.35 29.3 100 50 100 70.7 100 85.35 85.35 Z"/>
</mask>
			
	<linearGradient id="background-gradient" x1="0" y1="0" y2="1" x2="0" >
		<stop stop-color="#33ff43" offset="0%"/>
		<stop stop-color="#00da3a" offset="100%"/>
	</linearGradient>

			
			
			<svg xmlns="http://www.w3.org/2000/svg" id="picture" viewBox="4.76837158203125e-7 0 29 31" width="100" height="100">
    <style>
        .st0{fill:#333333;}
    </style>
    <path class="st0" d="M25 8c2.2 0 4-1.8 4-4s-1.8-4-4-4-4 1.8-4 4c0 1.1.4 2 1.1 2.7l-6.5 8c-.7-.4-1.6-.7-2.6-.7-.9 0-1.7.2-2.4.6L6.2 9.1c.5-.6.8-1.3.8-2.1 0-1.7-1.3-3-3-3S1 5.3 1 7s1.3 3 3 3c.5 0 .9-.1 1.3-.3l4.4 5.5C8.7 16.1 8 17.5 8 19c0 .9.2 1.7.6 2.4l-3.5 2.5c-.5-.6-1.3-.9-2.1-.9-1.7 0-3 1.3-3 3s1.3 3 3 3 3-1.3 3-3c0-.5-.1-.9-.3-1.3l3.5-2.5c.9 1.1 2.3 1.8 3.8 1.8 1.4 0 2.6-.6 3.5-1.5l5 3.7c-.3.6-.5 1.2-.5 1.8 0 1.7 1.3 3 3 3s3-1.3 3-3-1.3-3-3-3c-.6 0-1.2.2-1.7.6l-5.1-3.8c.5-.8.8-1.8.8-2.8 0-1.4-.6-2.7-1.6-3.6l6.5-8c.6.4 1.3.6 2.1.6zM3 7c0-.6.4-1 1-1s1 .4 1 1-.4 1-1 1-1-.4-1-1zm0 20c-.6 0-1-.4-1-1s.4-1 1-1 1 .4 1 1-.4 1-1 1zm22 1c0 .6-.4 1-1 1s-1-.4-1-1 .4-1 1-1 1 .4 1 1zm-12-6c-1.7 0-3-1.3-3-3s1.3-3 3-3 3 1.3 3 3-1.3 3-3 3zM25 2c1.1 0 2 .9 2 2s-.9 2-2 2-2-.9-2-2 .9-2 2-2z"/>
</svg>
			
		</defs>

		

			<use xlink:href="#background" fill="url(#background-gradient)" />

		<use xlink:href="#middle-1" />

			<g mask="url(#mask)">
				<g transform="
				        translate(
                                50 50
)
                            translate(0 0)  scale(0.5)  scale(1 -1)
                            translate(
                                -50 -50
)">
						<use xlink:href="#picture"   />
				</g>
			</g>

		



	</svg>
